{
  "source": "C:\\Users\\Peter\\Desktop\\stuff\\MIUN\\quantitative_research\\video_compression\\videos\\BVI-HD\\BVI-HD_CDVL_videos\\ORIG\\Music_1920x1080_30fps.mp4",
  "output": "C:\\Users\\Peter\\Desktop\\stuff\\MIUN\\quantitative_research\\video_compression\\compressed_videos\\BVI-HD\\av1\\3\\Music_1920x1080_30fps_av1.mkv",
  "codec": "av1",
  "ok": "Input #0, mov,mp4,m4a,3gp,3g2,mj2, from 'C:\\Users\\Peter\\Desktop\\stuff\\MIUN\\quantitative_research\\video_compression\\videos\\BVI-HD\\BVI-HD_CDVL_videos\\ORIG\\Music_1920x1080_30fps.mp4':\n  Metadata:\n    major_brand     : isom\n    minor_version   : 512\n    compatible_brands: isomiso2avc1mp41\n    encoder         : Lavf54.28.101\n  Duration: 00:00:05.00, start: 0.000000, bitrate: 192710 kb/s\n  Stream #0:0[0x1](und): Video: h264 (High 4:4:4 Predictive) (avc1 / 0x31637661), yuv420p(progressive), 1920x1080, 192707 kb/s, 30 fps, 30 tbr, 30 tbn (default)\n    Metadata:\n      handler_name    : VideoHandler\n      vendor_id       : [0][0][0][0]\n[out#0/matroska @ 00000254d9e88f40] Codec AVOption b:a (set bitrate (in bits/s)) has not been used for any stream. The most likely reason is either wrong type (e.g. a video option with no video streams) or that it is a private option of some decoder which was not actually used for any stream.\nStream mapping:\n  Stream #0:0 -> #0:0 (h264 (native) -> av1 (libsvtav1))\nPress [q] to stop, [?] for help\nSvt[info]: -------------------------------------------\nSvt[info]: SVT [version]:\tSVT-AV1 Encoder Lib v3.1.0-19-g6ecfe8ec\nSvt[info]: SVT [build]  :\tGCC 15.2.0\t 64 bit\nSvt[info]: LIB Build date: Aug 17 2025 11:37:13\nSvt[info]: -------------------------------------------\nSvt[info]: Level of Parallelism: 5\nSvt[info]: Number of PPCS 93\nSvt[info]: [asm level on system : up to avx2]\nSvt[info]: [asm level selected : up to avx2]\nSvt[info]: -------------------------------------------\nSvt[info]: SVT [config]: main profile\ttier (auto)\tlevel (auto)\nSvt[info]: SVT [config]: width / height / fps numerator / fps denominator \t\t: 1920 / 1080 / 30 / 1\nSvt[info]: SVT [config]: bit-depth / color format \t\t\t\t\t: 8 / YUV420\nSvt[info]: SVT [config]: preset / tune / pred struct \t\t\t\t\t: 4 / PSNR / random access\nSvt[info]: SVT [config]: gop size / mini-gop size / key-frame type \t\t\t: 161 / 16 / key frame\nSvt[info]: SVT [config]: BRC mode / target bitrate (kbps)\t\t\t\t: VBR / 3000 \nSvt[info]: SVT [config]: AQ mode / Variance Boost \t\t\t\t\t: 2 / 0\nSvt[info]: SVT [config]: sharpness / luminance-based QP bias \t\t\t\t: 0 / 0\nSvt[info]: SVT [config]: QP scale compress strength \t\t\t\t\t: 0\nSvt[info]: -------------------------------------------\nOutput #0, matroska, to 'C:\\Users\\Peter\\Desktop\\stuff\\MIUN\\quantitative_research\\video_compression\\compressed_videos\\BVI-HD\\av1\\3\\Music_1920x1080_30fps_av1.mkv':\n  Metadata:\n    major_brand     : isom\n    minor_version   : 512\n    compatible_brands: isomiso2avc1mp41\n    encoder         : Lavf62.3.100\n  Stream #0:0(und): Video: av1 (AV01 / 0x31305641), yuv420p(tv, progressive), 1920x1080, q=2-31, 3000 kb/s, 30 fps, 1k tbn (default)\n    Metadata:\n      encoder         : Lavc62.11.100 libsvtav1\n      handler_name    : VideoHandler\n      vendor_id       : [0][0][0][0]\n    Side data:\n      cpb: bitrate max/min/avg: 0/0/3000000 buffer size: 3000000 vbv_delay: N/A\nframe=    0 fps=0.0 q=0.0 size=       0KiB time=N/A bitrate=N/A speed=N/A elapsed=0:00:01.03    \nframe=    0 fps=0.0 q=0.0 size=       0KiB time=N/A bitrate=N/A speed=N/A elapsed=0:00:01.55    \nframe=    0 fps=0.0 q=0.0 size=       0KiB time=N/A bitrate=N/A speed=N/A elapsed=0:00:02.07    \nframe=    1 fps=0.4 q=20.0 size=       1KiB time=00:00:00.00 bitrate=N/A speed=   0x elapsed=0:00:02.59    \nframe=    2 fps=0.6 q=35.0 size=       1KiB time=00:00:00.03 bitrate= 171.1kbits/s speed=0.0107x elapsed=0:00:03.10    \nframe=    7 fps=1.9 q=32.0 size=       1KiB time=00:00:00.20 bitrate=  28.5kbits/s speed=0.0552x elapsed=0:00:03.62    \nframe=   10 fps=2.4 q=29.0 size=       1KiB time=00:00:00.30 bitrate=  19.0kbits/s speed=0.0715x elapsed=0:00:04.19    \nframe=   16 fps=3.4 q=29.0 size=       1KiB time=00:00:00.50 bitrate=  11.4kbits/s speed=0.105x elapsed=0:00:04.74    \nframe=   22 fps=4.2 q=25.0 size=       1KiB time=00:00:00.70 bitrate=   8.1kbits/s speed=0.133x elapsed=0:00:05.26    \nframe=   24 fps=4.2 q=25.0 size=       1KiB time=00:00:00.76 bitrate=   7.4kbits/s speed=0.133x elapsed=0:00:05.77    \nframe=   28 fps=4.4 q=25.0 size=       1KiB time=00:00:00.90 bitrate=   6.3kbits/s speed=0.142x elapsed=0:00:06.32    \nframe=   34 fps=4.9 q=34.0 size=       1KiB time=00:00:01.10 bitrate=   5.2kbits/s speed=0.16x elapsed=0:00:06.87    \nframe=   38 fps=5.1 q=33.0 size=       1KiB time=00:00:01.23 bitrate=   4.6kbits/s speed=0.167x elapsed=0:00:07.39    \nframe=   40 fps=5.1 q=33.0 size=       1KiB time=00:00:01.30 bitrate=   4.4kbits/s speed=0.164x elapsed=0:00:07.91    \nframe=   44 fps=5.2 q=33.0 size=       1KiB time=00:00:01.43 bitrate=   4.0kbits/s speed=0.17x elapsed=0:00:08.45    \nframe=   50 fps=5.6 q=30.0 size=       1KiB time=00:00:01.63 bitrate=   3.5kbits/s speed=0.181x elapsed=0:00:09.00    \nframe=   55 fps=5.8 q=30.0 size=       1KiB time=00:00:01.80 bitrate=   3.2kbits/s speed=0.189x elapsed=0:00:09.54    \nframe=   57 fps=5.7 q=20.0 size=       1KiB time=00:00:01.86 bitrate=   3.1kbits/s speed=0.185x elapsed=0:00:10.07    \nframe=   61 fps=5.8 q=27.0 size=       1KiB time=00:00:02.00 bitrate=   2.9kbits/s speed=0.189x elapsed=0:00:10.58    \nframe=   65 fps=5.8 q=9.0 size=       1KiB time=00:00:02.13 bitrate=   2.7kbits/s speed=0.192x elapsed=0:00:11.11    \nframe=   69 fps=5.9 q=28.0 size=       1KiB time=00:00:02.26 bitrate=   2.5kbits/s speed=0.195x elapsed=0:00:11.62    \nframe=   73 fps=6.0 q=21.0 size=       1KiB time=00:00:02.40 bitrate=   2.4kbits/s speed=0.198x elapsed=0:00:12.13    \nframe=   77 fps=6.1 q=27.0 size=       1KiB time=00:00:02.53 bitrate=   2.3kbits/s speed= 0.2x elapsed=0:00:12.66    \nframe=   81 fps=6.1 q=10.0 size=       1KiB time=00:00:02.66 bitrate=   2.1kbits/s speed=0.202x elapsed=0:00:13.18    \nframe=   87 fps=6.3 q=30.0 size=       1KiB time=00:00:02.86 bitrate=   2.0kbits/s speed=0.209x elapsed=0:00:13.70    \nframe=   89 fps=6.3 q=24.0 size=       1KiB time=00:00:02.93 bitrate=   1.9kbits/s speed=0.206x elapsed=0:00:14.22    \nframe=   93 fps=6.3 q=27.0 size=       1KiB time=00:00:03.06 bitrate=   1.9kbits/s speed=0.208x elapsed=0:00:14.74    \nframe=  101 fps=6.6 q=30.0 size=       1KiB time=00:00:03.33 bitrate=   1.7kbits/s speed=0.218x elapsed=0:00:15.26    \nframe=  105 fps=6.7 q=25.0 size=       1KiB time=00:00:03.46 bitrate=   1.6kbits/s speed=0.22x elapsed=0:00:15.78    \nframe=  105 fps=6.4 q=25.0 size=       1KiB time=00:00:03.46 bitrate=   1.6kbits/s speed=0.213x elapsed=0:00:16.30    \nframe=  109 fps=6.5 q=28.0 size=       1KiB time=00:00:03.60 bitrate=   1.6kbits/s speed=0.214x elapsed=0:00:16.83    \nframe=  113 fps=6.5 q=17.0 size=       1KiB time=00:00:03.73 bitrate=   1.5kbits/s speed=0.215x elapsed=0:00:17.35    \nframe=  119 fps=6.6 q=33.0 size=       1KiB time=00:00:03.86 bitrate=   1.5kbits/s speed=0.216x elapsed=0:00:17.89    \nframe=  121 fps=6.6 q=27.0 size=       1KiB time=00:00:04.00 bitrate=   1.4kbits/s speed=0.217x elapsed=0:00:18.45    \nframe=  125 fps=6.6 q=34.0 size=       1KiB time=00:00:04.13 bitrate=   1.4kbits/s speed=0.217x elapsed=0:00:19.01    \nframe=  129 fps=6.6 q=19.0 size=       1KiB time=00:00:04.26 bitrate=   1.3kbits/s speed=0.217x elapsed=0:00:19.64    \nframe=  135 fps=6.7 q=36.0 size=       1KiB time=00:00:04.46 bitrate=   1.3kbits/s speed=0.221x elapsed=0:00:20.21    \nframe=  139 fps=6.7 q=36.0 size=       1KiB time=00:00:04.53 bitrate=   1.3kbits/s speed=0.218x elapsed=0:00:20.76    \n[out#0/matroska @ 00000254d9e88f40] video:1714KiB audio:0KiB subtitle:0KiB other streams:0KiB global headers:0KiB muxing overhead: 0.083236%\nframe=  150 fps=7.1 q=36.0 Lsize=    1716KiB time=00:00:04.96 bitrate=2829.6kbits/s speed=0.235x elapsed=0:00:21.17    \n",
  "seconds": 21.76911234855652,
  "probe_out": {}
}